<svg viewBox="0 0 24 24" xmlns="http://www.w3.org/2000/svg">
  <path opacity="0.5" d="M6.512 12.506h1.587l.793-1.375H7.305l-.793 1.375Z"/>
  <path d="M7.305 11.131h-3.15l-.801 1.375h3.157l.794-1.375Zm1.587 0-.794 1.375h4.189l.801-1.375H8.892Z" opacity="0.33"/>
  <path opacity="0.5" d="M4.924 15.254H6.51l.793-1.374H5.717l-.793 1.374Z"/>
  <path d="M5.718 13.88H2.552l-.802 1.374h3.174l.794-1.374Zm1.587 0-.794 1.374h7.379l.801-1.374H7.305Z" opacity="0.33"/>
  <path opacity="0.5" d="M19.87 16.628h-1.587l.794 1.375h1.587l-.794-1.375Z"/>
  <path d="M18.283 16.629h-3.591l-.801 1.374h5.186l-.794-1.374Zm1.587 0 .794 1.374h2.384l.802-1.374h-3.98Z" opacity="0.33"/>
  <path d="M19.87 16.628 12 3l-4.695 8.131h1.587L12 5.748l7.87 13.63H4.13l3.968-6.872H6.511l-.793 1.374h1.587l-.794 1.374H4.924L1.75 20.751h20.5l-1.587-2.748h-1.587l-.794-1.375h1.587Z"/>
  <path d="M18.445 14.162a4.963 4.963 0 0 0-4.957-8.585l.689 1.193a3.589 3.589 0 0 1 3.58 6.2l.688 1.192Z"/>
</svg>
