<svg xmlns="http://www.w3.org/2000/svg" viewBox="0 0 24 24">
  <g clip-path="url(#a)">
    <path d="M5.164 22.074 3.75 19.64l2.483-4.3-1.24-2.157 3.851-6.731h2.883l2.443 4.305h2.487l3.886 6.733-1.409 2.432H14.17l-1.24 2.152H5.162v.001Zm.308-.556h6.813l-.92-1.597H4.55l.921 1.597h.001Zm6.373-1.874.922 1.596 2.164-3.748-.921-1.597-2.165 3.749Zm2.646-.278h4.007l-3.407-5.901h-4.328l.92 1.596h2.49l1.399 2.43-1.08 1.875Zm-9.941 0h6.814l2.164-3.75h-1.842l-1.244 2.154H7.637l-1.082-1.875-2.004 3.47H4.55Zm11.023-6.18 3.406 5.901.922-1.595-3.407-5.901-.921 1.596Zm-7.617 4.027H9.8l-2.164-3.748H5.793l2.163 3.748Zm.16-4.027 2.165 3.75.921-1.598-1.243-2.151 1.414-2.432h2.154l-2.002-3.47-3.407 5.9-.001.002Zm2.647-.278h4.329l.92-1.595h-4.327l-.921 1.595h-.001Zm-4.97 0h1.841l3.407-5.9H9.197l-3.406 5.9h.001Z"/>
    <path fill-opacity=".25" d="M10.655 5.605 12 3.275l3.843 6.656h1.314L12 1l-2.66 4.606 1.314-.001ZM22.029 20.646l-1.166-2.021.21-.36.013-.025.436-.75L24 21.782h-9.93l.661-1.136h7.298ZM1.97 20.646h1.373l.665 1.136H0l4.485-7.768.655 1.142-3.17 5.49Z"/>
  </g>
  <defs>
    <clipPath id="a">
      <path d="M0 0h24v24H0z"/>
    </clipPath>
  </defs>
</svg>
