<svg xmlns="http://www.w3.org/2000/svg" viewBox="0 0 24 24">
  <g clip-path="url(#a)">
    <path fill-opacity=".25" d="m12 3.274-1.715 2.97-1.91 1.031L11.999 1l3.608 6.249L13.7 6.217l-1.7-2.943ZM20.14 15.095v2.275l1.89 3.275h-3.722l-2.103 1.137h7.796l-3.861-6.687ZM5.674 20.646H1.97l1.89-3.273v-2.276L0 21.782h7.779l-2.105-1.136Z"/>
    <path d="M4.725 19.145V16.66l.667-.366-.667-.364v-2.496l.667-.36-.667-.357v-2.503L12 6.292l7.276 3.92v2.5l-.667.361.667.361v2.323c0 .109-.06.21-.156.261l-.511.276.668.351v2.512l-7.283 3.91-7.268-3.922h-.002Zm7.572 1.62v1.474l6.387-3.44v-1.472l-6.387 3.439Zm-6.979-1.964 6.387 3.439v-1.473l-6.387-3.44v1.474Zm.329-1.97L12 20.25l6.354-3.42-.372-.2-5.993 3.211-5.972-3.211-.371.2Zm6.65.713v1.473l6.387-3.438v-1.474l-6.387 3.44ZM5.318 15.58l6.387 3.439v-1.474l-6.387-3.439v1.474Zm.329-1.97L12 17.03l6.354-3.42-.372-.2-5.982 3.213-5.983-3.213-.371.2Zm6.65.713v1.473l6.387-3.439v-1.473l-6.387 3.439Zm-6.979-1.965 6.387 3.44v-1.474l-6.387-3.439v1.473Zm.329-1.97L12 13.809l6.354-3.421L12 6.967l-6.354 3.421Z"/>
  </g>
  <defs>
    <clipPath id="a">
      <path d="M0 0h24v24H0z"/>
    </clipPath>
  </defs>
</svg>
