<svg xmlns="http://www.w3.org/2000/svg" viewBox="0 0 28 24">
  <path d="m7.24 22.773-1.778-3.201 1.593-2.874-1.421-2.573H2.387l-1.774-3.16 1.743-3.19H6.08l1.561 2.83h2.846l1.625-2.857h3.678l1.738 3.162-1.59 2.884 1.461 2.57 3.278.01 1.74 3.17-1.754 3.19-3.64-.005-1.665-2.89h-2.83l-1.668 2.934H7.238h.002Zm-.879-2.862 1.25 2.2h2.499L8.854 19.9l-2.492.01Zm14.952-.02-.554.006-.667.006-1.038.008H19l-.026.046c-.31.55-.622 1.1-.935 1.649l-.271.477h2.499l.026-.046c.246-.437.496-.874.744-1.313l-.009.005c.027-.038.068-.11.146-.246l.338-.594-.198.003h-.001ZM9.41 19.555l1.266 2.22 1.273-2.235-1.247-2.188-1.292 2.203Zm6.54-.004 1.25 2.195 1.233-2.165-1.25-2.196-1.234 2.166Zm-9.59-.302 2.112-.01-.078-.136-.876-1.538-.1-.175-1.058 1.86Zm13.023-.004 2.131-.018-.076-.135a140.3 140.3 0 0 0-.906-1.59l-.08-.138-1.07 1.88h.001Zm-6.494-.064h2.483l1.25-2.199h-2.413l-1.32 2.2Zm5.923-.266 1.073-1.889h-2.149l1.075 1.889ZM8.039 17.117l.285.512c.215.389.46.83.631 1.125l.08.136.078-.135.95-1.636.08-.138H7.962l.077.137v-.001Zm4.276 1.74 1.123-1.877h-2.186l1.064 1.876-.001.001Zm-4.243-2.715-.107.214 2.522-.032 1.253-2.204H9.07l-.998 2.022Zm6.136.178h2.412l-.078-.137-1.144-2.014-.026-.047H12.89l1.317 2.198Zm-1.973-1.743c-.256.442-.664 1.162-.909 1.606l-.075.137h.155c.625-.002 1.249-.002 1.871-.002h.162l-1.127-1.875-.077.135v-.001Zm-4.82 1.41.919-1.859H6.389l1.025 1.859ZM3.14 13.462l2.114-.006L4.197 11.6l-1.058 1.863.001-.001Zm9.82-.005h2.413l1.227-2.199h-2.386l-1.254 2.2Zm-3.893 0h2.674l-1.25-2.199H7.982l1.085 2.2ZM6.4 13.454h1.93l-.895-1.822L6.4 13.454Zm4.848-2.187 1.098 1.933 1.108-1.942-2.206.01Zm-9.923-.335 1.248 2.192 1.251-2.196-1.25-2.194-1.249 2.198Zm4.502 2.19 1.057-1.858H4.77l1.058 1.859h.001Zm-1.435-2.52H6.89l-1.25-2.2H3.145l1.248 2.2Zm9.817-.004h2.412L15.374 8.4h-2.48l1.316 2.197Zm-2.957-.004h2.188l-1.123-1.872-1.065 1.872Z"/>
  <path fill-opacity=".25" d="M24.097 20.7H22.68l-.634 1.145h4.035L14 .9 8.857 9.814l1.322.001L14 3.192l10.098 17.507ZM6.185 16.738l-2.284 3.961h1.281l.643 1.146H1.916l3.62-6.275.65 1.168ZM12.942 20.7h2.012l.661 1.145h-3.32l.647-1.146Z"/>
</svg>
