<svg xmlns="http://www.w3.org/2000/svg" viewBox="0 0 24 24">
  <path fill-opacity=".25" d="m2 12.835 5.211 8.383h.001l1.835-3.187 3.446 5.97 4.057-7.026 1.39 2.415 4.157-6.555h-1.076l-3.08 4.903-.915-1.585 1.88-3.318H17.85l-1.339 2.426-1.398-2.426h-.97l1.895 3.247-3.544 6.138-2.933-5.08 2.478-4.305h-.951L9.1 16.343 7.05 12.835H6.01l2.577 4.398-1.375 2.379-4.352-6.777H2Z"/>
  <path d="M20.129 9.416a2.53 2.53 0 0 0 .774-1.246 2.52 2.52 0 0 0-.253-1.926 2.518 2.518 0 0 0-1.54-1.183 2.528 2.528 0 0 0-1.462.046l-.763-1.324-1.834 3.186L11.604 1 7.548 8.025 6.158 5.61 2 12.835h20.097l-1.968-3.42Zm-1.679-3.64c.152 0 .304.02.453.06.447.118.82.405 1.053.807.232.401.294.87.174 1.317a1.727 1.727 0 0 1-.412.74L18.06 5.822c.129-.03.26-.046.391-.046h-.001ZM3.43 12.009l2.727-4.747.915 1.585L5.26 12.01H3.43Zm4.156-2.271 1.275 2.27H6.31l1.275-2.27Zm2.216 2.27L8.06 8.919l3.543-6.138 2.934 5.08-2.352 4.149H9.802Zm5.195-3.35 1.898 3.35h-3.796l1.898-3.35Zm2.963 3.35-2.45-4.24 1.375-2.38 3.822 6.62H17.96Z"/>
</svg>
