<svg xmlns="http://www.w3.org/2000/svg" viewBox="0 0 24 24">
  <g clip-path="url(#a)">
    <path d="m12.716 23.673 9.53-10.294-4.825-5.478-6.679-1.745-3.2 2.047-5.147 5.18 10.32 10.29h.001Zm4.53-15.131 3.674 4.191-5.892-1.281-.307-1.23 1.947-1.294.58-.385-.001-.001ZM11.12 9.61l2.956.738.238.948-3.194-.695v-.99Zm-.32 1.568 3.684.801 1.055 4.21-11.532-2.878 6.794-2.133Zm4.402.961v-.004l5.917 1.286-4.912 2.724-1.004-4.007v.001Zm.4-3.292-1.316.877-3.166-.79v-2.03l5.385 1.344-.902.6Zm-5.115-1.823v1.752l-1.914-.479 1.915-1.274ZM7.872 8.8l2.614.652v1.163l-6.465 2.03L7.872 8.8Zm4.74 13.85-8.7-8.685 11.599 2.894-2.9 5.79Zm1.289-1.107 2.336-4.666 4.19-2.418-6.527 7.084Z"/>
    <path fill-opacity=".25" d="m12 3.27-.959 1.66-2.14 1.43L12 1l3.14 5.43-1.535-.383-1.605-2.777ZM8.537 20.612H1.97l2.405-4.156-.834-.832L0 21.748h9.674l-1.137-1.136ZM20.792 16.199l-.814.867 2.053 3.546h-5.378l-1.064 1.136h8.412l-3.21-5.55Z"/>
  </g>
  <defs>
    <clipPath id="a">
      <path d="M0 0h24v24H0z"/>
    </clipPath>
  </defs>
</svg>
