<svg width="160" height="160" viewBox="0 0 160 160" fill="none" xmlns="http://www.w3.org/2000/svg">
<rect width="160" height="160" fill="url(#paint0_radial_11669_75181)"/>
<path opacity="0.6" d="M52.1396 78.1936H60.1855L64.2089 71.2258H56.163L52.1396 78.1936Z" fill="white"/>
<g opacity="0.4">
<path d="M56.1631 71.2258H40.1934L36.1289 78.1936H52.1397L56.1631 71.2258Z" fill="white"/>
<path d="M64.2089 71.2258L60.1856 78.1936H81.4192L85.4837 71.2258H64.2089Z" fill="white"/>
</g>
<path opacity="0.6" d="M44.0928 92.129H52.1387L56.162 85.1613H48.1161L44.0928 92.129Z" fill="white"/>
<g opacity="0.4">
<path d="M48.1164 85.1613H32.0645L28 92.129H44.0931L48.1164 85.1613Z" fill="white"/>
<path d="M56.1623 85.1613L52.139 92.129H89.5484L93.6129 85.1613H56.1623Z" fill="white"/>
</g>
<path opacity="0.6" d="M119.866 99.0968H111.82L115.844 106.065H123.89L119.866 99.0968Z" fill="white"/>
<g opacity="0.4">
<path d="M111.82 99.0968H93.6133L89.5488 106.065H115.844L111.82 99.0968Z" fill="white"/>
<path d="M119.866 99.0968L123.89 106.065H135.979L140.043 99.0968H119.866Z" fill="white"/>
</g>
<path d="M119.866 99.0968L79.9677 30L56.1632 71.2258H64.2091L79.9677 43.9342L119.866 113.032H40.0692L60.1858 78.1935H52.1399L48.1166 85.1613H56.1623L52.1389 92.129H44.0932L28 120H131.935L123.889 106.065H115.843L111.82 99.0968H119.866Z" fill="white"/>
<path d="M112.646 86.5924C119.514 82.0993 124.052 74.3389 124.052 65.5186C124.052 51.6208 112.786 40.3544 98.888 40.3544C94.7944 40.3544 90.9291 41.3319 87.5127 43.0662L91.0047 49.1138C93.3898 47.9656 96.0638 47.3222 98.888 47.3222C108.938 47.3222 117.084 55.469 117.084 65.5186C117.084 71.7597 113.942 77.267 109.154 80.5448L112.646 86.5924Z" fill="white"/>
<defs>
<radialGradient id="paint0_radial_11669_75181" cx="0" cy="0" r="1" gradientUnits="userSpaceOnUse" gradientTransform="translate(5.05654 149.336) scale(244.062)">
<stop offset="0.333333" stop-color="#0E5FB5"/>
<stop offset="1" stop-color="#62AEFF"/>
</radialGradient>
</defs>
</svg>
