<svg width="160" height="160" viewBox="0 0 160 160" fill="none" xmlns="http://www.w3.org/2000/svg">
<rect width="160" height="160" fill="url(#paint0_radial_12885_82032)"/>
<g clip-path="url(#clip0_12885_82032)">
<path fill-rule="evenodd" clip-rule="evenodd" d="M122.158 61.6881L80 42.3474L37.8418 61.6881L37.8418 112.639L38.7274 113.128L79.982 135.496L122.158 112.643V61.6941V61.6881ZM80 109.783L61.8501 101.405L80 91.6327L98.1499 101.405L80 109.783ZM59.7617 98.7V73.9376L78.3125 65.3743V88.7125L72.9447 91.6028L59.7617 98.7ZM81.6815 88.7125V65.3743L100.232 73.9376V98.7L81.6815 88.7125ZM79.994 46.0456L116.701 62.873L101.848 70.9755L79.9701 60.8922L58.128 70.9755L43.2754 62.879L79.982 46.0516L79.994 46.0456ZM41.2109 110.638V65.5838L56.3866 73.8598V102.673L78.3065 112.721V130.733L41.2109 110.638ZM118.777 110.638L81.6815 130.733V112.721L103.601 102.566V73.8598L104.451 73.3991L118.783 65.5838V110.638H118.777Z" fill="white"/>
<path d="M80.0003 27.1298L88.3482 41.5935L97.8749 45.9619L80.0003 15L62.1377 45.938L71.6644 41.5695L80.0003 27.1298Z" fill="white" fill-opacity="0.33"/>
<path d="M133.492 119.776H117.58L106.384 125.838H144L126.323 95.2234V107.365L133.492 119.776Z" fill="white" fill-opacity="0.33"/>
<path d="M26.5081 119.776L33.6711 107.371V95.2354L16 125.838H53.4966L42.3062 119.776H26.5081Z" fill="white" fill-opacity="0.33"/>
</g>
<defs>
<radialGradient id="paint0_radial_12885_82032" cx="0" cy="0" r="1" gradientUnits="userSpaceOnUse" gradientTransform="translate(153.841 4.22377) scale(229.336)">
<stop offset="0.109314" stop-color="#DAA331"/>
<stop offset="0.77998" stop-color="#654B17"/>
</radialGradient>
<clipPath id="clip0_12885_82032">
<rect width="128" height="120.496" fill="white" transform="translate(16 15)"/>
</clipPath>
</defs>
</svg>
