<svg width="160" height="160" viewBox="0 0 160 160" fill="none" xmlns="http://www.w3.org/2000/svg">
<path opacity="0.6" d="M46.4961 78.8883H56.3275L61.2436 70.3743H51.4122L46.4961 78.8883Z" fill="white"/>
<g opacity="0.4">
<path d="M51.4136 70.3743H31.9001L26.9336 78.8883H46.4974L51.4136 70.3743Z" fill="white"/>
<path d="M61.2449 70.3743L56.3288 78.8883H82.2744L87.2409 70.3743H61.2449Z" fill="white"/>
</g>
<path opacity="0.6" d="M36.6641 95.9162H46.4954L51.4116 87.4022H41.5802L36.6641 95.9162Z" fill="white"/>
<g opacity="0.4">
<path d="M41.5804 87.4022H21.9665L17 95.9162H36.6643L41.5804 87.4022Z" fill="white"/>
<path d="M51.4118 87.4022L46.4957 95.9162H92.2067L97.1732 87.4022H51.4118Z" fill="white"/>
</g>
<path opacity="0.6" d="M129.251 104.43H119.42L124.336 112.944H134.167L129.251 104.43Z" fill="white"/>
<g opacity="0.4">
<path d="M119.421 104.43H97.1735L92.207 112.944H124.337L119.421 104.43Z" fill="white"/>
<path d="M129.252 104.43L134.168 112.944H148.94L153.907 104.43H129.252Z" fill="white"/>
</g>
<path d="M129.252 104.43L80.5 20L51.4129 70.3743H61.2443L80.5 37.0264L129.252 121.458H31.7475L56.3282 78.8883H46.4968L41.5807 87.4022H51.4118L46.4957 95.9162H36.6645L17 129.972H144L134.168 112.944H124.337L119.42 104.43H129.252Z" fill="white"/>
<path d="M120.429 89.1509C128.822 83.6607 134.367 74.1782 134.367 63.4005C134.367 46.4187 120.601 32.6522 103.619 32.6522C98.6168 32.6522 93.8938 33.8466 89.7193 35.9657L93.9862 43.3554C96.9006 41.9524 100.168 41.1662 103.619 41.1662C115.899 41.1662 125.853 51.1208 125.853 63.4005C125.853 71.0267 122.014 77.7561 116.163 81.7613L120.429 89.1509Z" fill="white"/>
</svg>
