<svg width="160" height="160" viewBox="0 0 160 160" fill="none" xmlns="http://www.w3.org/2000/svg">
<path opacity="0.33" d="M20 81.9996L51.1178 132.056L51.1237 132.051L62.0768 113.026L82.6565 148.667L106.877 106.72L115.177 121.139L140 82L133.577 81.9996L115.183 111.273L109.718 101.811L120.941 81.9996H114.641L106.646 96.487L98.2991 81.9996H92.5072L103.821 101.39L82.6624 138.035L65.1454 107.702L79.943 81.9996H74.2639L62.3984 102.945L50.1509 81.9996H43.939L59.3298 108.257L51.1237 122.465L25.1338 81.9996H20Z" fill="white"/>
<path d="M128.247 61.5847C130.473 59.6326 132.092 57.0435 132.87 54.1446C133.922 50.2346 133.384 46.1492 131.362 42.6425C129.34 39.1358 126.072 36.6285 122.162 35.5823C120.871 35.2375 119.55 35.0621 118.223 35.0621C116.604 35.0621 114.98 35.3368 113.431 35.857L108.878 27.9493L97.9252 46.9733L77.3466 11.3333L53.1268 53.2796L44.8276 38.8611L20 81.9996H140L128.247 61.5847ZM118.223 39.8488C119.129 39.8488 120.041 39.9716 120.929 40.2053C123.594 40.9125 125.827 42.625 127.218 45.0271C128.603 47.4233 128.971 50.217 128.252 52.8938C127.797 54.5829 126.955 56.0791 125.792 57.3123L115.897 40.1235C116.663 39.9423 117.452 39.8488 118.229 39.8488H118.223ZM28.5389 77.0668L44.8217 48.7267L50.2864 58.189L39.4681 77.0668H28.5389ZM53.3548 63.5075L60.9643 77.0668H45.7452L53.3548 63.5075ZM66.5868 77.0668L56.1835 58.6098L77.3407 21.9645L94.8568 52.2977L80.8124 77.0668H66.5868ZM97.6037 57.0551L108.936 77.0668H86.2712L97.6037 57.0551ZM115.295 77.0668L100.672 51.7425L108.878 37.5344L131.701 77.0668H115.295Z" fill="white"/>
</svg>
