<svg width="160" height="160" viewBox="0 0 160 160" fill="none" xmlns="http://www.w3.org/2000/svg">
<rect width="160" height="160" fill="url(#paint0_radial_12886_82090)"/>
<path d="M44.4461 130.659L35.0943 113.731L43.4717 98.5377L35.9974 84.9287H18.9218L9.59375 68.2223L18.7614 51.3485H38.3384L46.5494 66.3208H61.5158L70.0655 51.2109H89.4049L98.5487 67.9293L90.1832 83.1827L97.8714 96.7738L115.107 96.8217L124.263 113.588L115.036 130.45L95.8929 130.426L87.1353 115.142H72.252C72.252 115.142 64.4806 128.895 63.4765 130.659H44.4342H44.4461ZM39.8237 115.525L46.3949 127.155H59.5373L52.9364 115.477L39.8296 115.525H39.8237ZM118.458 115.424C117.46 115.435 116.504 115.447 115.547 115.453L112.036 115.483C110.218 115.501 108.394 115.513 106.576 115.525H106.296L106.16 115.77C104.526 118.676 102.886 121.582 101.24 124.488L99.8142 127.012H112.957L113.093 126.766C114.389 124.458 115.702 122.144 117.009 119.824L116.961 119.848C117.104 119.651 117.318 119.268 117.728 118.551L119.504 115.412L118.464 115.424H118.458ZM55.8596 113.636L62.514 125.373L69.21 113.558L62.6506 101.988L55.8596 113.636ZM90.2486 113.618L96.8257 125.224L103.314 113.773L96.7366 102.161L90.2486 113.618ZM39.8178 112.021L50.9223 111.967L50.5123 111.25C50.5123 111.25 47.4525 105.845 45.9077 103.118L45.3849 102.191L39.8178 112.027V112.021ZM108.311 111.997L119.516 111.902L119.118 111.19C117.829 108.87 115.69 105.103 114.353 102.783L113.931 102.054L108.305 111.997H108.311ZM74.1532 111.662H87.2125L93.7837 100.033H81.0988L74.1592 111.662H74.1532ZM105.304 110.251L110.948 100.266H99.6479L105.298 110.251H105.304ZM48.6467 100.75C49.0686 101.504 49.5855 102.448 50.144 103.459C51.2788 105.516 52.5621 107.848 53.4652 109.408L53.8811 110.126L54.297 109.414C55.2179 107.83 59.2937 100.762 59.2937 100.762L59.7156 100.033H48.2427L48.6467 100.756V100.75ZM71.135 109.952L77.0408 100.027C77.0408 100.027 74.0047 100.027 72.9174 100.027H65.5441L71.1409 109.946L71.135 109.952ZM48.819 95.5959L48.2605 96.726L61.5218 96.5586L68.1108 84.9047H54.0653C54.0653 84.9047 50.5301 92.1159 48.819 95.5959ZM81.0928 96.5346H93.7778L93.3678 95.8111C91.3596 92.2594 89.3514 88.7136 87.3491 85.1619L87.2125 84.9167H74.1651L81.0928 96.5346ZM70.7132 87.3204C69.3704 89.6584 67.2256 93.4672 65.9363 95.8111L65.5382 96.5346H66.3581C69.6437 96.5287 72.9234 96.5287 76.1971 96.5287H77.0467L71.1231 86.6148L70.7132 87.3264V87.3204ZM45.3611 94.7767L50.1974 84.9466H39.9722L45.3611 94.7767ZM22.8847 81.4247L34.0011 81.3948L28.4399 71.5767L22.8788 81.4307L22.8847 81.4247ZM74.5275 81.4008H87.2185L93.6708 69.7709H81.1225L74.5275 81.4008ZM54.0534 81.4008H68.1168L61.5456 69.7709H48.3496L54.0534 81.4008ZM40.0316 81.3829H50.1796L45.474 71.7501L40.0316 81.3829ZM65.5323 69.8188L71.3073 80.0375L77.1299 69.7709L65.5323 69.8188ZM13.3428 68.0489L19.9081 79.6369L26.4852 68.025L19.9081 56.425L13.3428 68.0489ZM37.0194 79.6309L42.5805 69.8008H31.4522L37.0134 79.6309H37.0194ZM29.4737 66.2969H42.5983L36.0271 54.667H22.9085L29.4737 66.2969ZM81.1047 66.279H93.7897L87.2244 54.661H74.183L81.1047 66.279ZM65.5501 66.261H77.0586L71.1528 56.3592L65.5501 66.261Z" fill="white"/>
<path d="M74.4386 119.693H85.0203L88.496 125.75H71.0342L74.4386 119.693Z" fill="white" fill-opacity="0.33"/>
<path d="M38.897 98.747L26.8834 119.693H33.621L37.0017 125.75H16.4443L35.4866 92.5703L38.897 98.747Z" fill="white" fill-opacity="0.33"/>
<path d="M125.648 119.693H133.099L79.9946 27.1202L59.9007 62.1414L52.9492 62.1355L79.9946 15L143.532 125.75H122.309L125.648 119.693Z" fill="white" fill-opacity="0.33"/>
<defs>
<radialGradient id="paint0_radial_12886_82090" cx="0" cy="0" r="1" gradientUnits="userSpaceOnUse" gradientTransform="translate(151.708 6.06905) scale(201.123)">
<stop offset="0.117808" stop-color="#1486FF"/>
<stop offset="0.877608" stop-color="#08386B"/>
</radialGradient>
</defs>
</svg>
